<?xml version="1.0" standalone="no"?>
<!DOCTYPE svg PUBLIC "-//W3C//DTD SVG 20010904//EN"
 "http://www.w3.org/TR/2001/REC-SVG-20010904/DTD/svg10.dtd">
<svg version="1.0" xmlns="http://www.w3.org/2000/svg"
 width="512.000000pt" height="512.000000pt" viewBox="0 0 512.000000 512.000000"
 preserveAspectRatio="xMidYMid meet">

<g transform="translate(0.000000,512.000000) scale(0.100000,-0.100000)"
fill="#000000" stroke="none">
<path d="M2240 4599 c-372 -48 -745 -206 -1034 -439 -96 -77 -116 -108 -116
-176 0 -89 68 -158 155 -156 52 0 72 10 155 77 219 177 463 292 750 356 123
27 424 37 567 19 387 -48 748 -231 1025 -519 296 -306 459 -684 484 -1121 l7
-125 -61 57 c-33 32 -72 62 -87 68 -64 24 -147 -1 -189 -57 -26 -36 -33 -121
-13 -159 9 -16 109 -122 224 -236 293 -291 272 -291 566 0 109 109 206 211
215 227 8 17 16 50 16 75 0 86 -58 149 -144 158 -56 5 -86 -9 -156 -71 l-50
-45 -12 161 c-21 284 -81 513 -197 755 -307 638 -902 1065 -1605 1152 -98 12
-404 11 -500 -1z"/>
<path d="M2432 3545 c-264 -60 -455 -296 -456 -565 -1 -165 54 -301 169 -416
234 -234 596 -234 830 0 115 116 170 252 169 416 -2 246 -159 465 -393 546
-93 32 -227 40 -319 19z m243 -333 c196 -101 200 -373 6 -474 -110 -58 -254
-27 -328 71 -117 153 -49 361 137 422 41 14 142 3 185 -19z"/>
<path d="M570 3279 c-30 -12 -425 -403 -446 -441 -35 -67 -3 -168 66 -207 71
-40 139 -25 210 44 l45 44 1 -172 c0 -106 7 -214 17 -282 136 -894 813 -1579
1707 -1730 149 -25 401 -30 560 -11 445 52 855 242 1169 541 74 71 91 99 91
155 0 81 -51 145 -124 157 -68 11 -103 -4 -184 -78 -329 -301 -698 -452 -1132
-466 -409 -13 -776 104 -1105 351 -112 84 -278 254 -357 366 -76 107 -183 309
-222 418 -77 217 -117 483 -101 687 l7 96 57 -54 c68 -65 108 -87 156 -87 76
0 134 44 157 121 23 78 6 103 -211 323 -123 125 -211 205 -236 217 -44 20 -86
23 -125 8z"/>
<path d="M2022 2260 c-123 -33 -170 -66 -379 -274 -207 -206 -214 -218 -198
-303 9 -49 69 -109 118 -118 83 -16 99 -6 287 180 119 118 190 181 220 194 43
20 65 21 490 21 426 0 447 -1 490 -21 31 -14 100 -75 220 -194 147 -145 181
-174 213 -180 60 -11 107 3 148 44 41 41 55 88 44 149 -5 32 -35 66 -203 232
-214 213 -248 237 -378 270 -72 19 -111 20 -538 19 -422 0 -467 -2 -534 -19z"/>
</g>
</svg>
