<?xml version="1.0" standalone="no"?>
<!DOCTYPE svg PUBLIC "-//W3C//DTD SVG 20010904//EN"
 "http://www.w3.org/TR/2001/REC-SVG-20010904/DTD/svg10.dtd">
<svg version="1.0" xmlns="http://www.w3.org/2000/svg"
 width="1080.000000pt" height="1080.000000pt" viewBox="0 0 1080.000000 1080.000000"
 preserveAspectRatio="xMidYMid meet">

<g transform="translate(0.000000,1080.000000) scale(0.100000,-0.100000)"
fill="#000000" stroke="none">
<path d="M4905 10490 c-66 -4 -136 -13 -155 -19 -19 -6 -67 -11 -106 -11 -39
0 -93 -7 -120 -15 -27 -8 -69 -15 -94 -15 -25 0 -63 -5 -85 -11 -22 -6 -71
-15 -109 -20 -38 -5 -78 -15 -89 -21 -11 -6 -46 -14 -76 -18 -31 -4 -69 -12
-86 -18 -79 -29 -164 -52 -186 -52 -14 0 -30 -5 -37 -12 -6 -6 -30 -14 -54
-19 -42 -7 -95 -25 -208 -69 -30 -12 -68 -26 -85 -31 -16 -5 -39 -13 -50 -18
-11 -4 -47 -18 -80 -31 -167 -62 -615 -289 -773 -392 -15 -10 -38 -23 -52 -30
-14 -7 -43 -24 -65 -37 -22 -14 -47 -30 -56 -36 -19 -12 -111 -75 -189 -130
-53 -37 -190 -143 -200 -155 -3 -3 -30 -25 -60 -50 -91 -74 -109 -91 -230
-201 -124 -115 -323 -318 -380 -388 -19 -24 -43 -52 -53 -63 -10 -10 -63 -76
-118 -146 -55 -70 -111 -140 -125 -157 -15 -16 -32 -45 -40 -62 -8 -18 -18
-33 -23 -33 -6 0 -13 -10 -17 -22 -4 -13 -22 -43 -40 -67 -19 -24 -34 -49 -34
-56 0 -7 -7 -19 -16 -26 -9 -7 -20 -22 -26 -34 -5 -11 -20 -38 -33 -60 -14
-22 -29 -50 -35 -63 -5 -13 -17 -30 -25 -38 -8 -9 -15 -21 -15 -28 0 -7 -9
-23 -20 -36 -11 -13 -20 -31 -20 -40 0 -10 -6 -23 -14 -29 -8 -7 -18 -25 -21
-41 -3 -16 -12 -34 -20 -40 -8 -6 -17 -24 -20 -40 -3 -16 -13 -34 -21 -41 -8
-6 -14 -18 -14 -26 0 -8 -9 -31 -19 -51 -36 -69 -61 -129 -61 -144 0 -9 -7
-21 -15 -28 -8 -7 -15 -24 -15 -39 0 -14 -9 -39 -20 -56 -11 -16 -20 -40 -20
-53 0 -12 -9 -39 -20 -59 -11 -21 -20 -52 -20 -69 0 -17 -6 -37 -14 -43 -8 -6
-17 -33 -21 -58 -4 -26 -13 -56 -21 -67 -8 -11 -14 -39 -14 -61 0 -22 -9 -57
-20 -78 -13 -23 -20 -56 -20 -90 0 -30 -6 -62 -15 -73 -8 -12 -17 -58 -21
-105 -3 -46 -12 -93 -19 -104 -6 -11 -15 -65 -19 -120 -4 -55 -13 -118 -21
-140 -21 -59 -21 -902 0 -960 8 -22 18 -94 21 -160 4 -66 13 -131 20 -145 7
-14 16 -59 20 -100 4 -41 13 -84 20 -95 8 -11 14 -43 14 -72 0 -34 7 -67 20
-90 11 -21 20 -51 20 -68 0 -17 6 -40 14 -51 8 -11 18 -48 22 -82 3 -34 13
-67 20 -73 8 -6 14 -23 14 -38 0 -14 9 -41 20 -59 11 -18 20 -45 20 -60 0 -15
9 -40 20 -57 11 -16 20 -40 20 -51 0 -12 6 -27 14 -33 8 -7 17 -30 21 -51 4
-21 13 -44 21 -51 8 -6 14 -22 14 -34 0 -12 9 -34 20 -48 11 -14 20 -33 20
-42 0 -9 9 -28 20 -42 11 -14 20 -34 20 -43 0 -10 6 -23 14 -29 8 -7 18 -25
21 -41 3 -16 12 -34 20 -40 8 -6 17 -25 20 -41 4 -16 11 -32 16 -35 6 -3 15
-16 20 -27 6 -12 21 -40 34 -62 13 -22 31 -53 40 -70 8 -16 24 -43 35 -60 11
-16 27 -45 35 -63 8 -17 19 -32 24 -32 6 0 13 -10 16 -21 9 -27 86 -141 102
-152 7 -4 13 -12 13 -18 0 -5 17 -32 38 -58 44 -59 93 -127 107 -149 6 -10 23
-30 38 -46 15 -16 38 -43 50 -59 12 -17 31 -40 42 -52 11 -11 49 -54 85 -95
115 -131 296 -305 512 -493 76 -66 297 -233 346 -262 9 -5 43 -28 75 -50 32
-22 80 -53 106 -70 26 -16 63 -41 82 -55 19 -14 45 -31 59 -38 14 -7 39 -21
55 -32 17 -11 44 -26 60 -34 17 -9 57 -31 90 -50 33 -19 98 -53 145 -76 47
-23 117 -57 155 -76 39 -19 75 -34 80 -34 6 0 16 -5 23 -12 11 -11 58 -30 122
-50 19 -6 44 -17 55 -24 11 -8 29 -14 42 -14 12 0 25 -4 28 -10 3 -5 25 -14
48 -20 23 -6 56 -17 72 -24 48 -21 97 -37 145 -47 24 -5 49 -14 54 -19 6 -6
21 -10 33 -10 13 0 36 -6 51 -14 15 -8 46 -17 67 -21 22 -4 49 -13 60 -20 11
-6 42 -15 69 -18 27 -4 55 -12 63 -19 7 -6 44 -15 81 -19 82 -10 162 -26 222
-45 25 -8 61 -14 81 -14 19 0 58 -7 86 -15 28 -8 109 -20 180 -25 70 -5 153
-14 183 -19 30 -5 190 -12 355 -15 294 -5 666 -27 755 -45 25 -5 83 -13 130
-16 47 -4 100 -14 119 -21 18 -8 48 -14 65 -14 17 0 64 -9 105 -20 41 -11 86
-20 100 -20 14 -1 37 -7 51 -15 14 -8 44 -14 66 -15 23 0 58 -7 77 -15 20 -8
51 -15 69 -15 18 0 45 -6 59 -14 14 -7 53 -17 85 -21 32 -4 64 -11 69 -15 10
-8 80 -28 185 -51 71 -17 151 -38 201 -54 26 -8 59 -15 73 -15 15 0 39 -6 54
-14 15 -7 47 -17 72 -20 25 -4 68 -13 95 -21 118 -32 251 -61 350 -76 39 -5
87 -16 108 -24 20 -8 59 -15 85 -15 27 0 72 -7 101 -16 111 -33 677 -33 729 0
7 4 37 12 65 16 53 9 138 34 169 51 10 5 23 9 30 9 33 0 181 90 287 175 27 22
187 182 211 212 22 28 100 143 100 148 0 3 15 27 33 53 18 26 38 58 45 72 6
14 16 32 20 40 8 14 28 56 65 140 8 19 24 55 35 80 11 25 23 56 27 70 4 14 14
34 21 45 8 11 14 28 14 38 0 10 8 32 17 50 9 18 20 50 24 72 4 22 15 63 24 90
33 97 37 111 49 165 7 30 18 65 24 77 7 12 12 36 12 53 0 17 9 56 20 87 11 32
20 76 20 99 0 23 6 59 14 80 7 22 17 73 21 113 4 41 13 88 20 105 7 17 16 69
20 115 3 46 11 96 17 110 5 14 14 79 19 143 5 64 14 129 20 145 6 15 15 96 19
178 5 83 14 170 19 195 5 25 12 115 16 200 3 85 13 223 22 305 24 226 24 2150
1 2305 -9 58 -19 152 -22 210 -3 58 -13 127 -21 154 -8 27 -15 72 -15 100 0
29 -9 77 -20 109 -11 31 -20 75 -20 97 0 23 -5 51 -12 63 -6 12 -17 49 -24 82
-12 59 -15 71 -49 170 -9 28 -20 66 -24 85 -5 19 -16 49 -25 65 -9 17 -16 39
-16 50 0 11 -6 30 -14 41 -8 11 -17 37 -21 57 -4 20 -13 41 -21 48 -8 6 -14
20 -14 31 0 11 -8 37 -18 57 -10 20 -28 56 -39 81 -44 98 -66 146 -75 160 -4
8 -11 22 -14 30 -3 8 -10 22 -15 30 -5 8 -16 30 -25 49 -8 19 -22 40 -30 48
-8 8 -14 23 -14 33 0 10 -5 22 -11 26 -6 3 -18 21 -26 38 -29 63 -46 91 -60
99 -7 4 -13 16 -13 26 0 10 -9 26 -20 36 -11 10 -20 22 -20 27 0 4 -16 31 -35
58 -19 27 -35 54 -35 58 0 5 -9 17 -20 27 -11 10 -20 22 -20 27 0 10 -32 53
-189 256 -136 175 -140 179 -306 350 -146 150 -340 327 -490 447 -55 44 -102
82 -105 85 -10 10 -69 50 -74 50 -3 0 -43 28 -88 63 -46 34 -103 76 -128 92
-25 17 -47 33 -50 36 -3 4 -27 18 -55 33 -27 15 -63 35 -80 46 -16 11 -42 25
-57 31 -16 6 -28 15 -28 19 0 4 -12 13 -27 19 -16 6 -41 20 -58 31 -16 11 -37
22 -45 26 -28 11 -55 24 -168 84 -63 33 -119 60 -127 60 -7 0 -18 7 -25 15 -7
8 -23 15 -35 15 -12 0 -28 7 -35 15 -7 8 -17 15 -23 15 -5 0 -31 9 -56 21 -25
12 -59 27 -76 35 -16 7 -43 16 -59 20 -16 4 -41 13 -55 20 -14 8 -33 14 -41
14 -8 0 -24 7 -34 15 -11 8 -29 15 -40 15 -12 1 -39 9 -61 20 -22 11 -49 20
-60 20 -11 0 -29 7 -39 15 -11 8 -34 15 -50 15 -17 1 -42 7 -56 15 -14 8 -38
14 -53 15 -15 0 -40 6 -55 14 -15 7 -47 17 -72 21 -25 4 -57 14 -72 21 -15 8
-43 14 -63 14 -20 0 -49 7 -65 15 -15 8 -55 17 -87 21 -32 3 -77 12 -101 20
-23 8 -64 14 -90 14 -26 0 -72 7 -102 15 -30 8 -82 15 -115 15 -33 0 -91 7
-130 16 -55 12 -160 16 -480 19 -225 2 -464 0 -530 -5z"/>
</g>
</svg>
