<?xml version="1.0" standalone="no"?>
<!DOCTYPE svg PUBLIC "-//W3C//DTD SVG 20010904//EN"
 "http://www.w3.org/TR/2001/REC-SVG-20010904/DTD/svg10.dtd">
<svg version="1.0" xmlns="http://www.w3.org/2000/svg"
 width="512.000000pt" height="512.000000pt" viewBox="0 0 512.000000 512.000000"
 preserveAspectRatio="xMidYMid meet">

<g transform="translate(0.000000,512.000000) scale(0.100000,-0.100000)"
fill="#000000" stroke="none">
<path d="M3479 4781 c-24 -16 -512 -498 -1085 -1072 -1097 -1100 -1064 -1065
-1064 -1149 0 -84 -34 -48 1074 -1158 578 -579 1065 -1061 1081 -1069 77 -41
165 -34 230 19 68 57 93 154 60 236 -11 26 -300 322 -983 1004 l-967 968 967
967 c682 682 972 979 983 1005 29 71 13 162 -38 216 -64 69 -180 83 -258 33z"/>
</g>
</svg>
