<?xml version="1.0" standalone="no"?>
<!DOCTYPE svg PUBLIC "-//W3C//DTD SVG 20010904//EN"
 "http://www.w3.org/TR/2001/REC-SVG-20010904/DTD/svg10.dtd">
<svg version="1.0" xmlns="http://www.w3.org/2000/svg"
 width="306.000000pt" height="302.000000pt" viewBox="0 0 306.000000 302.000000"
 preserveAspectRatio="xMidYMid meet">

<g transform="translate(0.000000,302.000000) scale(0.100000,-0.100000)"
fill="#353535" stroke="none">
<path d="M423 2731 c-73 -25 -117 -63 -149 -126 -23 -48 -26 -64 -22 -123 6
-77 23 -117 74 -166 99 -97 307 -93 413 7 101 96 93 276 -15 365 -73 61 -199
79 -301 43z"/>
<path d="M267 1964 c-4 -4 -7 -339 -7 -745 l0 -737 263 -4 c144 -2 265 -3 270
-1 4 2 7 338 7 746 l0 742 -263 3 c-144 2 -266 0 -270 -4z"/>
<path d="M1246 1961 c-3 -5 1 -1433 4 -1482 0 -4 436 -4 522 1 4 0 8 204 10
453 3 434 4 454 24 497 37 80 124 140 202 140 71 0 150 -75 176 -169 14 -49
16 -122 16 -492 l0 -434 257 1 258 1 0 474 c0 506 -4 561 -50 694 -28 81 -98
188 -150 228 -55 43 -136 77 -208 85 -86 11 -225 -2 -303 -28 -77 -26 -164
-87 -196 -137 l-23 -38 -3 107 -3 107 -265 -1 c-145 0 -266 -3 -268 -7z"/>
</g>
</svg>
