<?xml version="1.0" standalone="no"?>
<!DOCTYPE svg PUBLIC "-//W3C//DTD SVG 20010904//EN"
 "http://www.w3.org/TR/2001/REC-SVG-20010904/DTD/svg10.dtd">
<svg version="1.0" xmlns="http://www.w3.org/2000/svg"
 width="512.000000pt" height="512.000000pt" viewBox="0 0 512.000000 512.000000"
 preserveAspectRatio="xMidYMid meet">

<g transform="translate(0.000000,512.000000) scale(0.100000,-0.100000)"
fill="#000000" stroke="none">
<path d="M1450 4795 c-19 -9 -43 -24 -54 -33 -28 -25 -66 -112 -66 -153 0 -84
4 -89 1005 -1089 525 -525 955 -957 955 -960 0 -3 -430 -435 -955 -960 -1036
-1036 -1013 -1010 -1002 -1106 7 -63 52 -131 107 -161 38 -20 55 -24 107 -20
52 4 70 11 110 40 26 20 510 498 1075 1064 1011 1013 1026 1029 1044 1086 17
55 17 59 0 115 -18 56 -33 72 -1044 1085 -565 565 -1049 1044 -1076 1065 -42
31 -58 37 -110 39 -40 2 -73 -2 -96 -12z"/>
</g>
</svg>
