<?xml version="1.0" standalone="no"?>
<!DOCTYPE svg PUBLIC "-//W3C//DTD SVG 20010904//EN"
 "http://www.w3.org/TR/2001/REC-SVG-20010904/DTD/svg10.dtd">
<svg version="1.0" xmlns="http://www.w3.org/2000/svg"
 width="512.000000pt" height="512.000000pt" viewBox="0 0 512.000000 512.000000"
 preserveAspectRatio="xMidYMid meet">

<g transform="translate(0.000000,512.000000) scale(0.100000,-0.100000)"
fill="#373737" stroke="none">
<path d="M2192 4460 c-18 -11 -37 -31 -43 -44 -17 -37 -3 -91 32 -120 26 -22
40 -26 100 -26 l69 0 0 -165 c0 -187 11 -168 -100 -180 -30 -3 -68 -10 -85
-14 -195 -56 -340 -122 -461 -212 l-79 -59 -112 112 c-62 62 -113 116 -113
121 0 5 15 23 33 40 49 47 67 78 67 112 0 61 -64 112 -123 100 -43 -10 -362
-324 -378 -373 -29 -88 75 -167 151 -115 14 9 39 32 57 50 17 18 35 33 40 33
5 0 59 -51 121 -113 l112 -112 -49 -66 c-100 -133 -163 -267 -222 -474 -4 -16
-11 -55 -14 -85 -12 -111 7 -100 -180 -100 l-165 0 0 65 c0 75 -17 116 -55
133 -57 26 -111 8 -140 -48 -21 -41 -22 -454 -1 -505 28 -67 116 -83 167 -29
20 21 24 38 27 100 l4 74 167 -2 166 -3 7 -65 c21 -198 126 -445 256 -608 l35
-44 -116 -116 -115 -115 -57 51 c-50 46 -62 52 -99 52 -75 0 -124 -76 -90
-141 23 -46 328 -347 359 -355 90 -22 164 61 124 139 -6 12 -30 41 -52 65
l-42 42 117 117 117 117 23 -21 c39 -35 178 -122 253 -157 112 -52 282 -106
337 -106 29 0 75 30 87 57 31 69 -1 124 -87 147 -174 47 -260 84 -380 163
-225 148 -385 375 -449 638 -35 141 -34 377 1 505 31 114 39 137 77 214 148
299 402 497 743 581 103 25 344 23 451 -4 152 -38 252 -81 365 -157 238 -159
381 -375 460 -692 11 -45 36 -70 77 -78 43 -8 85 10 106 45 21 36 21 53 1 133
-45 183 -151 399 -248 506 l-20 23 117 117 117 116 37 -35 c21 -20 49 -43 63
-53 91 -60 195 62 128 150 -44 58 -304 311 -337 328 -40 21 -75 15 -113 -22
-22 -20 -28 -35 -28 -68 0 -37 6 -49 52 -99 l51 -57 -115 -115 -115 -115 -73
56 c-161 121 -430 227 -605 238 l-40 3 -3 166 -2 167 74 4 c62 3 79 7 100 27
51 48 43 125 -16 161 -30 18 -51 20 -263 20 -212 0 -233 -2 -263 -20z"/>
<path d="M1979 3287 c-129 -37 -222 -134 -258 -272 -22 -82 -5 -187 42 -268
75 -128 241 -207 375 -178 83 19 135 44 187 92 243 224 105 618 -223 635 -45
2 -96 -1 -123 -9z m186 -216 c16 -10 40 -33 53 -52 20 -29 23 -43 20 -98 -4
-59 -7 -66 -45 -102 -24 -22 -55 -40 -77 -44 -58 -11 -104 3 -149 44 -38 36
-41 42 -44 102 -3 51 0 70 16 96 48 76 145 99 226 54z"/>
<path d="M3210 2650 c-176 -26 -350 -118 -490 -260 -198 -201 -282 -446 -252
-740 6 -60 15 -117 20 -127 5 -10 19 -47 31 -83 35 -106 107 -215 206 -315
203 -203 451 -288 743 -257 154 16 273 61 411 155 l43 30 254 -254 254 -254
50 0 c64 0 90 24 97 90 l6 46 -258 259 -257 258 29 43 c94 138 139 257 155
412 31 291 -54 539 -257 742 -210 209 -483 298 -785 255z m330 -217 c178 -44
356 -188 437 -353 61 -122 76 -185 76 -315 0 -133 -18 -208 -76 -325 -59 -120
-177 -238 -297 -297 -120 -59 -184 -74 -320 -74 -136 0 -200 15 -320 74 -167
82 -308 259 -356 447 -22 87 -22 254 0 340 41 161 155 322 289 410 164 107
373 141 567 93z"/>
</g>
</svg>
