<?xml version="1.0" standalone="no"?>
<!DOCTYPE svg PUBLIC "-//W3C//DTD SVG 20010904//EN"
 "http://www.w3.org/TR/2001/REC-SVG-20010904/DTD/svg10.dtd">
<svg version="1.0" xmlns="http://www.w3.org/2000/svg"
 width="200.000000pt" height="200.000000pt" viewBox="0 0 200.000000 200.000000"
 preserveAspectRatio="xMidYMid meet">

<g transform="translate(0.000000,200.000000) scale(0.100000,-0.100000)"
fill="#000000" stroke="none">
<path d="M240 1729 c-55 -25 -105 -71 -133 -124 -22 -39 -22 -48 -25 -579 -3
-629 -5 -618 81 -701 32 -31 68 -55 93 -63 31 -9 218 -12 750 -12 691 0 710 1
754 21 55 25 105 71 133 124 22 39 22 48 25 578 3 468 1 546 -13 593 -20 68
-73 129 -140 160 l-50 24 -715 0 c-698 0 -716 -1 -760 -21z m1485 -174 l25
-24 0 -531 0 -531 -25 -24 -24 -25 -701 0 -701 0 -24 25 -25 24 0 531 0 531
25 24 24 25 701 0 701 0 24 -25z"/>
<path d="M465 1408 c-51 -29 -61 -93 -20 -133 24 -25 25 -25 217 -25 161 0
197 3 216 16 52 36 48 110 -9 139 -36 19 -372 21 -404 3z"/>
<path d="M1127 1404 c-15 -8 -32 -26 -37 -40 -6 -14 -10 -174 -10 -365 0 -370
3 -389 56 -409 14 -6 106 -10 204 -10 177 0 179 0 209 26 l31 26 0 367 0 368
-26 24 c-25 23 -30 24 -212 26 -153 2 -192 0 -215 -13z m293 -404 l0 -250 -85
0 -85 0 0 250 0 250 85 0 85 0 0 -250z"/>
<path d="M446 1059 c-33 -26 -35 -75 -5 -113 l20 -26 203 0 c197 0 203 1 224
23 35 37 37 69 7 105 l-27 32 -198 0 c-184 0 -199 -1 -224 -21z"/>
<path d="M445 725 c-37 -36 -34 -86 6 -119 30 -26 31 -26 210 -26 199 0 227 7
248 58 15 35 2 73 -31 96 -19 13 -55 16 -216 16 -192 0 -193 0 -217 -25z"/>
</g>
</svg>
